<?xml version="1.0" encoding="UTF-8" standalone="no"?>
<svg
   viewBox="0 0 148.38637 158.61363"
   version="1.1"
   id="svg46"
   sodipodi:docname="camera.svg"
   inkscape:version="1.2.2 (732a01da63, 2022-12-09)"
   width="148.38637"
   height="158.61363"
   xmlns:inkscape="http://www.inkscape.org/namespaces/inkscape"
   xmlns:sodipodi="http://sodipodi.sourceforge.net/DTD/sodipodi-0.dtd"
   xmlns="http://www.w3.org/2000/svg"
   xmlns:svg="http://www.w3.org/2000/svg"
   xmlns:bx="https://boxy-svg.com">
  <sodipodi:namedview
     id="namedview48"
     pagecolor="#ffffff"
     bordercolor="#000000"
     borderopacity="0.25"
     inkscape:showpageshadow="false"
     inkscape:pageopacity="0.0"
     inkscape:pagecheckerboard="true"
     inkscape:deskcolor="#d1d1d1"
     showgrid="false"
     inkscape:zoom="2.3673935"
     inkscape:cx="47.943023"
     inkscape:cy="78.56742"
     inkscape:window-width="1920"
     inkscape:window-height="1017"
     inkscape:window-x="-8"
     inkscape:window-y="-8"
     inkscape:window-maximized="1"
     inkscape:current-layer="g44"
     showborder="false"
     borderlayer="false"
     shape-rendering="crispEdges" />
  <defs
     id="defs26">
    <bx:grid
       x="0"
       y="0"
       width="11.32"
       height="10.487" />
  </defs>
  <g
     transform="translate(-105.04544,-249.75)"
     id="g44">
    <g
       id="SVGRepo_iconCarrier"
       transform="matrix(9.274148,0,0,9.913352,105.04544,249.75)">
      <rect
         width="16"
         height="16"
         id="icon-bound"
         fill="none"
         style="fill-rule:nonzero;stroke-width:1.45928px"
         x="0"
         y="0" />
      <path
         d="M 8.0683198,0 C 3.7129393,0 0.17813783,2.688 0.17813783,6 c 0,6 7.89018197,10 7.89018197,10 0,0 7.8901822,-4 7.8901822,-10 0,-3.312 -3.534802,-6 -7.8901822,-6 z"
         style="fill-rule:nonzero;stroke-width:1.67342px"
         id="path35" />
    </g>
    <g
       transform="matrix(0.21079179,0,0,0.21118412,125.38891,256.22249)"
       id="g42">
      <path
         class="st0"
         d="m 256,198.494 c -24.037,0.008 -45.646,9.768 -61.446,25.68 -15.76,15.94 -25.496,37.826 -25.519,62.17 0.023,24.361 9.759,46.238 25.519,62.151 15.8,15.931 37.409,25.698 61.446,25.698 24.009,0 45.642,-9.767 61.432,-25.698 15.778,-15.912 25.514,-37.79 25.523,-62.151 -0.008,-24.344 -9.754,-46.23 -25.523,-62.17 -15.79,-15.912 -37.423,-25.672 -61.432,-25.68 z m 0,142.012 c -29.657,0 -53.689,-24.235 -53.689,-54.163 0,-29.919 24.032,-54.163 53.689,-54.163 29.657,0 53.688,24.244 53.688,54.163 0,29.929 -24.031,54.163 -53.688,54.163 z"
         style="fill:#ffffff"
         id="path38" />
      <path
         class="st0"
         d="m 496.774,135.592 c -9.344,-9.461 -22.509,-15.416 -36.886,-15.416 h -56.404 c -4.545,0.018 -8.783,-2.702 -10.734,-7.093 L 375.852,75.257 C 367.494,56.516 348.916,44.326 328.295,44.326 H 183.706 c -20.616,0 -39.199,12.19 -47.576,30.931 l -16.88,37.826 c -1.952,4.391 -6.195,7.111 -10.731,7.093 H 52.112 c -14.372,0 -27.56,5.954 -36.922,15.416 C 5.824,145.026 0,158.21 0,172.569 v 242.73 c 0,14.368 5.824,27.543 15.19,36.976 9.361,9.462 22.554,15.416 36.922,15.398 h 224.554 183.222 c 14.378,0.018 27.543,-5.937 36.886,-15.398 C 506.181,442.842 512,429.667 512,415.299 v -242.73 c 0,-14.359 -5.819,-27.561 -15.226,-36.977 z M 339.458,370.334 c -21.276,21.515 -50.887,34.89 -83.458,34.89 -32.585,0 -62.182,-13.374 -83.463,-34.89 -21.321,-21.46 -34.523,-51.262 -34.504,-83.991 -0.019,-32.729 13.184,-62.504 34.504,-84 21.28,-21.498 50.874,-34.889 83.463,-34.862 32.571,-0.027 62.182,13.364 83.458,34.862 21.321,21.497 34.532,51.271 34.505,84 0.027,32.729 -13.184,62.531 -34.505,83.991 z M 461.967,214.542 H 426.174 V 178.74 h 35.793 z"
         style="fill:#ffffff"
         id="path40" />
    </g>
  </g>
</svg>
