<?xml version="1.0" encoding="utf-8"?>
<svg viewBox="0 0 500 500" xmlns="http://www.w3.org/2000/svg" xmlns:bx="https://boxy-svg.com">
  <defs>
    <bx:grid x="0" y="0" width="11.32" height="10.487"/>
  </defs>
  <g id="SVGRepo_bgCarrier" stroke-width="0" transform="matrix(9.274148, 0, 0, 9.913352, 305.636353, 119.840912)" style=""/>
  <g id="SVGRepo_tracerCarrier" stroke-linecap="round" stroke-linejoin="round" stroke="#CCCCCC" stroke-width="0.032" transform="matrix(9.274148, 0, 0, 9.913352, 305.636353, 119.840912)" style=""/>
  <g transform="matrix(1, 0, 0, 1, -319.111572, 217.972076)"/>
  <g id="g-1" stroke-width="0" transform="matrix(9.274148, 0, 0, 9.913352, 414.51709, 111.13604)" style=""/>
  <g id="g-2" stroke-linecap="round" stroke-linejoin="round" stroke="#CCCCCC" stroke-width="0.032" transform="matrix(9.274148, 0, 0, 9.913352, 414.51709, 111.13604)" style=""/>
  <g transform="matrix(1, 0, 0, 1, 170.720718, -110.812874)">
    <g id="SVGRepo_iconCarrier" transform="matrix(9.274148, 0, 0, 9.913352, 105.045441, 249.75)" style="">
      <rect width="16" height="16" id="icon-bound" fill="none" style="stroke-width: 1.45928px; fill-rule: nonzero;"/>
      <path d="M 8 0 C 4.688 0 2 2.688 2 6 C 2 12 8 16 8 16 C 8 16 14 12 14 6 C 14 2.688 11.312 0 8 0 Z" style="stroke-width: 1.45928px; fill-rule: nonzero;"/>
    </g>
    <g transform="matrix(0.149741, 0, 0, 0.158302, 141.017914, 261.100983)" style="">
      <path class="st0" d="M256,198.494c-24.037,0.008-45.646,9.768-61.446,25.68c-15.76,15.94-25.496,37.826-25.519,62.17&#10;&#9;&#9;c0.023,24.361,9.759,46.238,25.519,62.151c15.8,15.931,37.409,25.698,61.446,25.698c24.009,0,45.642-9.767,61.432-25.698&#10;&#9;&#9;c15.778-15.912,25.514-37.79,25.523-62.151c-0.008-24.344-9.754-46.23-25.523-62.17C301.642,208.262,280.009,198.502,256,198.494z&#10;&#9;&#9; M256,340.506c-29.657,0-53.689-24.235-53.689-54.163c0-29.919,24.032-54.163,53.689-54.163c29.657,0,53.688,24.244,53.688,54.163&#10;&#9;&#9;C309.688,316.272,285.657,340.506,256,340.506z" style="fill: rgb(255, 255, 255);"/>
      <path class="st0" d="M496.774,135.592c-9.344-9.461-22.509-15.416-36.886-15.416h-56.404c-4.545,0.018-8.783-2.702-10.734-7.093&#10;&#9;&#9;l-16.898-37.826c-8.358-18.741-26.936-30.931-47.557-30.931H183.706c-20.616,0-39.199,12.19-47.576,30.931l-16.88,37.826&#10;&#9;&#9;c-1.952,4.391-6.195,7.111-10.731,7.093H52.112c-14.372,0-27.56,5.954-36.922,15.416C5.824,145.026,0,158.21,0,172.569v242.73&#10;&#9;&#9;c0,14.368,5.824,27.543,15.19,36.976c9.361,9.462,22.554,15.416,36.922,15.398h224.554h183.222&#10;&#9;&#9;c14.378,0.018,27.543-5.937,36.886-15.398c9.407-9.433,15.226-22.608,15.226-36.976v-242.73&#10;&#9;&#9;C512,158.21,506.181,145.008,496.774,135.592z M339.458,370.334c-21.276,21.515-50.887,34.89-83.458,34.89&#10;&#9;&#9;c-32.585,0-62.182-13.374-83.463-34.89c-21.321-21.46-34.523-51.262-34.504-83.991c-0.019-32.729,13.184-62.504,34.504-84&#10;&#9;&#9;c21.28-21.498,50.874-34.889,83.463-34.862c32.571-0.027,62.182,13.364,83.458,34.862c21.321,21.497,34.532,51.271,34.505,84&#10;&#9;&#9;C373.99,319.072,360.779,348.874,339.458,370.334z M461.967,214.542h-35.793V178.74h35.793V214.542z" style="fill: rgb(255, 255, 255);"/>
    </g>
  </g>
</svg>