<?xml version="1.0" encoding="UTF-8" standalone="no"?>
<svg
   viewBox="0 0 148.38637 158.61363"
   version="1.1"
   id="svg300"
   sodipodi:docname="danger.svg"
   inkscape:version="1.2.2 (732a01da63, 2022-12-09)"
   width="148.38637"
   height="158.61363"
   xmlns:inkscape="http://www.inkscape.org/namespaces/inkscape"
   xmlns:sodipodi="http://sodipodi.sourceforge.net/DTD/sodipodi-0.dtd"
   xmlns="http://www.w3.org/2000/svg"
   xmlns:svg="http://www.w3.org/2000/svg"
   xmlns:rdf="http://www.w3.org/1999/02/22-rdf-syntax-ns#"
   xmlns:cc="http://creativecommons.org/ns#"
   xmlns:bx="https://boxy-svg.com">
  <sodipodi:namedview
     id="namedview302"
     pagecolor="#ffffff"
     bordercolor="#000000"
     borderopacity="0.25"
     inkscape:showpageshadow="false"
     inkscape:pageopacity="0.0"
     inkscape:pagecheckerboard="true"
     inkscape:deskcolor="#d1d1d1"
     showgrid="false"
     inkscape:zoom="2.3673935"
     inkscape:cx="-59.347971"
     inkscape:cy="37.594088"
     inkscape:window-width="1920"
     inkscape:window-height="1017"
     inkscape:window-x="-8"
     inkscape:window-y="-8"
     inkscape:window-maximized="1"
     inkscape:current-layer="g296"
     showborder="false"
     borderlayer="false"
     shape-rendering="crispEdges" />
  <defs
     id="defs269">
    <bx:grid
       x="0"
       y="0"
       width="11.32"
       height="10.487" />
  </defs>
  <g
     transform="translate(-105.04544,-249.75)"
     id="g296">
    <g
       id="SVGRepo_iconCarrier"
       transform="matrix(9.274148,0,0,9.913352,105.04544,249.75)">
      <rect
         width="16"
         height="16"
         id="icon-bound"
         fill="none"
         style="fill-rule:nonzero;stroke-width:1.45928px"
         x="0"
         y="0" />
      <path
         d="M 8.0455466,0 C 3.6273119,0 0.04149817,2.688 0.04149817,6 c 0,6 8.00404843,10 8.00404843,10 0,0 8.0040484,-4 8.0040484,-10 0,-3.312 -3.585813,-6 -8.0040484,-6 z"
         style="fill-rule:nonzero;stroke-width:1.68545px"
         id="path280" />
    </g>
    <g
       transform="matrix(0.25148941,0,0,0.30757589,140.03202,248.06725)"
       id="g294">
      <g
         id="g-7"
         transform="matrix(1.516296,0,0,1.140736,-63.241081,50.728992)">
        <g
           id="g291">
          <path
             d="M 147.714,0 C 66.264,0 0,66.264 0,147.714 c 0,81.45 66.264,147.714 147.714,147.714 81.45,0 147.714,-66.264 147.714,-147.714 C 295.428,66.264 229.164,0 147.714,0 Z m 0,265.428 C 82.807,265.428 30,212.621 30,147.714 30,82.807 82.807,30 147.714,30 c 64.907,0 117.714,52.807 117.714,117.714 0,64.907 -52.807,117.714 -117.714,117.714 z"
             style="fill:#ffffff"
             id="path285" />
          <path
             d="m 147.714,61.68 c -8.284,0 -15,6.716 -15,15 v 79 c 0,8.284 6.716,15 15,15 8.284,0 15,-6.716 15,-15 v -79 c 0,-8.284 -6.716,-15 -15,-15 z"
             style="fill:#ffffff"
             id="path287" />
          <circle
             cx="147.714"
             cy="217.67999"
             r="15"
             style="fill:#ffffff"
             id="circle289" />
        </g>
      </g>
    </g>
  </g>
  <metadata
     id="metadata28">
    <rdf:RDF>
      <cc:Work
         rdf:about="" />
    </rdf:RDF>
  </metadata>
</svg>
