<?xml version="1.0" encoding="UTF-8" standalone="no"?>
<svg
   viewBox="0 0 148.38637 158.61363"
   version="1.1"
   id="svg342"
   sodipodi:docname="radar.svg"
   inkscape:version="1.2.2 (732a01da63, 2022-12-09)"
   width="148.38637"
   height="158.61363"
   xmlns:inkscape="http://www.inkscape.org/namespaces/inkscape"
   xmlns:sodipodi="http://sodipodi.sourceforge.net/DTD/sodipodi-0.dtd"
   xmlns="http://www.w3.org/2000/svg"
   xmlns:svg="http://www.w3.org/2000/svg"
   xmlns:bx="https://boxy-svg.com">
  <sodipodi:namedview
     id="namedview344"
     pagecolor="#ffffff"
     bordercolor="#000000"
     borderopacity="0.25"
     inkscape:showpageshadow="false"
     inkscape:pageopacity="0.0"
     inkscape:pagecheckerboard="true"
     inkscape:deskcolor="#d1d1d1"
     showgrid="false"
     inkscape:zoom="1.674"
     inkscape:cx="-18.817204"
     inkscape:cy="154.12186"
     inkscape:window-width="1920"
     inkscape:window-height="1017"
     inkscape:window-x="-8"
     inkscape:window-y="-8"
     inkscape:window-maximized="1"
     inkscape:current-layer="g338"
     showborder="false"
     borderlayer="false"
     shape-rendering="crispEdges" />
  <defs
     id="defs316">
    <bx:grid
       x="0"
       y="0"
       width="11.32"
       height="10.487" />
  </defs>
  <g
     transform="translate(-105.04544,-249.75)"
     id="g338">
    <g
       id="SVGRepo_iconCarrier"
       transform="matrix(9.274148,0,0,9.913352,105.04544,249.75)">
      <rect
         width="16"
         height="16"
         id="icon-bound"
         fill="none"
         style="fill-rule:nonzero;stroke-width:1.45928px"
         x="0"
         y="0" />
      <path
         d="M 8.0322063,0 C 3.6002008,0 0.00321082,2.688 0.00321082,6 c 0,6 8.02899548,10 8.02899548,10 0,0 8.0289957,-4 8.0289957,-10 0,-3.312 -3.59699,-6 -8.0289957,-6 z"
         style="fill-rule:nonzero;stroke-width:1.68808px"
         id="path327" />
    </g>
    <g
       transform="matrix(0.25912688,0,0,0.28615003,133.70362,248.13882)"
       id="g336">
      <path
         d="m 237.631,233.8 v -94 c 0,-4.687 -3.813,-8.5 -8.5,-8.5 h -142 c -4.687,0 -8.5,3.813 -8.5,8.5 v 94 c 0,4.687 3.813,8.5 8.5,8.5 h 142 c 4.687,0 8.5,-3.813 8.5,-8.5 z m -15,-6.5 h -129 v -81 h 129 z"
         style="fill:#ffffff"
         id="path330" />
      <path
         d="m 158.131,210.3 c 12.958,0 23.5,-10.542 23.5,-23.5 0,-12.958 -10.542,-23.5 -23.5,-23.5 -12.958,0 -23.5,10.542 -23.5,23.5 0,12.958 10.542,23.5 23.5,23.5 z m 0,-32 c 4.687,0 8.5,3.813 8.5,8.5 0,4.687 -3.813,8.5 -8.5,8.5 -4.687,0 -8.5,-3.813 -8.5,-8.5 0,-4.687 3.814,-8.5 8.5,-8.5 z"
         style="fill:#ffffff"
         id="path332" />
      <path
         d="m 373.1,275.3 h -24 c -8.151,0 -14.384,7.349 -18.524,21.841 -1.527,5.342 -2.722,11.496 -3.561,18.159 H 190.6 v -8.5 c 0,-4.142 -3.357,-7.5 -7.5,-7.5 h -0.5 v -17 h 80.531 c 12.958,0 23.5,-10.542 23.5,-23.5 v -40.5 h 8.933 c 8.223,0 15.02,-6.431 15.476,-14.64 L 317.213,92.547 C 317.698,83.815 314.656,75.506 308.646,69.153 302.635,62.799 293.508,59.3 284.762,59.3 H 31.501 c -8.745,0 -15.872,3.499 -21.882,9.852 -6.01,6.354 -9.054,14.662 -8.569,23.395 l 6.173,111.112 c 0.456,8.21 7.254,14.641 15.477,14.641 h 8.932 v 40.5 c 0,12.958 10.542,23.5 23.5,23.5 H 135.6 v 17 h -0.5 c -4.143,0 -7.5,3.358 -7.5,7.5 v 48 c 0,17.369 14.131,31.5 31.5,31.5 14.785,0 27.216,-10.241 30.591,-24 h 137.324 c 0.839,6.662 2.034,12.817 3.561,18.158 4.141,14.493 10.373,21.842 18.524,21.842 h 24 c 4.143,0 7.5,-3.358 7.5,-7.5 v -112 c 0,-4.142 -3.357,-7.5 -7.5,-7.5 z m -350.4,-72 c -0.266,0 -0.485,-0.208 -0.5,-0.472 L 16.027,91.716 C 15.773,87.141 17.368,82.789 20.516,79.461 23.663,76.133 27.92,74.3 32.501,74.3 h 253.26 c 4.582,0 8.839,1.833 11.987,5.161 3.147,3.328 4.741,7.68 4.487,12.254 l -6.173,111.113 c -0.015,0.264 -0.234,0.472 -0.499,0.472 h -8.933 v -88.5 c 0,-12.958 -10.542,-23.5 -23.5,-23.5 h -208 c -12.958,0 -23.5,10.542 -23.5,23.5 v 88.5 z m 23.931,55.5 v -144 c 0,-4.687 3.813,-8.5 8.5,-8.5 h 208 c 4.687,0 8.5,3.813 8.5,8.5 v 144 c 0,4.687 -3.813,8.5 -8.5,8.5 h -208 c -4.686,0 -8.5,-3.813 -8.5,-8.5 z M 150.6,282.3 h 17 v 17 h -17 z m 8.5,89 c -9.098,0 -16.5,-7.402 -16.5,-16.5 v -40.5 h 33 v 8.5 32 c 0,9.098 -7.402,16.5 -16.5,16.5 z m 31.5,-24 v -17 h 135.177 c -0.117,2.794 -0.177,5.633 -0.177,8.5 0,2.868 0.061,5.706 0.177,8.5 z m 175,40 h -15.689 c -3.343,-3.065 -9.311,-19.947 -9.311,-48.5 0,-28.553 5.968,-45.435 9.311,-48.5 H 365.6 Z"
         style="fill:#ffffff"
         id="path334" />
    </g>
  </g>
</svg>
