<?xml version="1.0" encoding="utf-8"?>
<svg viewBox="0 0 500 500" xmlns="http://www.w3.org/2000/svg" xmlns:bx="https://boxy-svg.com">
  <defs>
    <bx:grid x="0" y="0" width="11.32" height="10.487"/>
  </defs>
  <g id="SVGRepo_bgCarrier" stroke-width="0" transform="matrix(9.274148, 0, 0, 9.913352, 305.636353, 119.840912)" style=""/>
  <g id="SVGRepo_tracerCarrier" stroke-linecap="round" stroke-linejoin="round" stroke="#CCCCCC" stroke-width="0.032" transform="matrix(9.274148, 0, 0, 9.913352, 305.636353, 119.840912)" style=""/>
  <g transform="matrix(1, 0, 0, 1, -319.111572, 217.972076)"/>
  <g id="g-1" stroke-width="0" transform="matrix(9.274148, 0, 0, 9.913352, 414.51709, 111.13604)" style=""/>
  <g id="g-2" stroke-linecap="round" stroke-linejoin="round" stroke="#CCCCCC" stroke-width="0.032" transform="matrix(9.274148, 0, 0, 9.913352, 414.51709, 111.13604)" style=""/>
  <g transform="matrix(1, 0, 0, 1, 170.720718, -110.812874)">
    <g id="g-3" stroke-width="0" transform="matrix(9.274148, 0, 0, 9.913352, 90.435181, 187.460907)" style=""/>
    <g id="g-4" stroke-linecap="round" stroke-linejoin="round" stroke="#CCCCCC" stroke-width="0.032" transform="matrix(9.274148, 0, 0, 9.913352, 90.435181, 187.460907)" style=""/>
    <g transform="matrix(1, 0, 0, 1, -153.360443, -34.488884)">
      <g id="SVGRepo_iconCarrier" transform="matrix(9.274148, 0, 0, 9.913352, 105.045441, 249.75)" style="">
        <rect width="16" height="16" id="icon-bound" fill="none" style="stroke-width: 1.45928px; fill-rule: nonzero;"/>
        <path d="M 8 0 C 4.688 0 2 2.688 2 6 C 2 12 8 16 8 16 C 8 16 14 12 14 6 C 14 2.688 11.312 0 8 0 Z" style="stroke-width: 1.45928px; fill-rule: nonzero;"/>
      </g>
      <g transform="matrix(0.188311, 0, 0, 0.237385, 148.70871, 251.62796)" style="">
        <path d="M237.631,233.8v-94c0-4.687-3.813-8.5-8.5-8.5h-142c-4.687,0-8.5,3.813-8.5,8.5v94c0,4.687,3.813,8.5,8.5,8.5h142&#10;&#9;&#9;C233.818,242.3,237.631,238.487,237.631,233.8z M222.631,227.3h-129v-81h129V227.3z" style="fill: rgb(255, 255, 255);"/>
        <path d="M158.131,210.3c12.958,0,23.5-10.542,23.5-23.5s-10.542-23.5-23.5-23.5s-23.5,10.542-23.5,23.5&#10;&#9;&#9;S145.173,210.3,158.131,210.3z M158.131,178.3c4.687,0,8.5,3.813,8.5,8.5s-3.813,8.5-8.5,8.5s-8.5-3.813-8.5-8.5&#10;&#9;&#9;S153.445,178.3,158.131,178.3z" style="fill: rgb(255, 255, 255);"/>
        <path d="M 373.1 275.3 L 349.1 275.3 C 340.949 275.3 334.716 282.649 330.576 297.141 C 329.049 302.483 327.854 308.637 327.015 315.3 L 190.6 315.3 L 190.6 306.8 C 190.6 302.658 187.243 299.3 183.1 299.3 L 182.6 299.3 L 182.6 282.3 L 263.131 282.3 C 276.089 282.3 286.631 271.758 286.631 258.8 L 286.631 218.3 L 295.564 218.3 C 303.787 218.3 310.584 211.869 311.04 203.66 L 317.213 92.547 C 317.698 83.815 314.656 75.506 308.646 69.153 C 302.635 62.799 293.508 59.3 284.762 59.3 L 31.501 59.3 C 22.756 59.3 15.629 62.799 9.619 69.152 C 3.609 75.506 0.565 83.814 1.05 92.547 L 7.223 203.659 C 7.679 211.869 14.477 218.3 22.7 218.3 L 31.632 218.3 L 31.632 258.8 C 31.632 271.758 42.174 282.3 55.132 282.3 L 135.6 282.3 L 135.6 299.3 L 135.1 299.3 C 130.957 299.3 127.6 302.658 127.6 306.8 L 127.6 354.8 C 127.6 372.169 141.731 386.3 159.1 386.3 C 173.885 386.3 186.316 376.059 189.691 362.3 L 327.015 362.3 C 327.854 368.962 329.049 375.117 330.576 380.458 C 334.717 394.951 340.949 402.3 349.1 402.3 L 373.1 402.3 C 377.243 402.3 380.6 398.942 380.6 394.8 L 380.6 282.8 C 380.6 278.658 377.243 275.3 373.1 275.3 Z M 22.7 203.3 C 22.434 203.3 22.215 203.092 22.2 202.828 L 16.027 91.716 C 15.773 87.141 17.368 82.789 20.516 79.461 C 23.663 76.133 27.92 74.3 32.501 74.3 L 285.761 74.3 C 290.343 74.3 294.6 76.133 297.748 79.461 C 300.895 82.789 302.489 87.141 302.235 91.715 L 296.062 202.828 C 296.047 203.092 295.828 203.3 295.563 203.3 L 286.63 203.3 L 286.63 114.8 C 286.63 101.842 276.088 91.3 263.13 91.3 L 55.13 91.3 C 42.172 91.3 31.63 101.842 31.63 114.8 L 31.63 203.3 L 22.7 203.3 Z M 46.631 258.8 L 46.631 114.8 C 46.631 110.113 50.444 106.3 55.131 106.3 L 263.131 106.3 C 267.818 106.3 271.631 110.113 271.631 114.8 L 271.631 258.8 C 271.631 263.487 267.818 267.3 263.131 267.3 L 55.131 267.3 C 50.445 267.3 46.631 263.487 46.631 258.8 Z M 150.6 282.3 L 167.6 282.3 L 167.6 299.3 L 150.6 299.3 L 150.6 282.3 Z M 159.1 371.3 C 150.002 371.3 142.6 363.898 142.6 354.8 L 142.6 314.3 L 175.6 314.3 L 175.6 322.8 L 175.6 354.8 C 175.6 363.898 168.198 371.3 159.1 371.3 Z M 190.6 347.3 L 190.6 330.3 L 325.777 330.3 C 325.66 333.094 325.6 335.933 325.6 338.8 C 325.6 341.668 325.661 344.506 325.777 347.3 L 190.6 347.3 Z M 365.6 387.3 L 349.911 387.3 C 346.568 384.235 340.6 367.353 340.6 338.8 C 340.6 310.247 346.568 293.365 349.911 290.3 L 365.6 290.3 L 365.6 387.3 Z" style="fill: rgb(255, 255, 255);"/>
      </g>
    </g>
  </g>
</svg>